# xmcd
#
# Track frame offsets:
#	150
#	36352
#	64287
#	81700
#	106000
#	138200
#	162187
#	186450
#	207632
#	232685
#	270247
#	295407
#	317197
#
# Disc length: 4568 seconds
#
# Revision: 0
# Processed by: cddbd v1.4PL0 Copyright (c) Steve Scherf et al.
# Submitted via: audiograbber 1.80.04
#
DISCID=c011d60d
DTITLE=LUTHER VANDROSS - THE BEST OF YOUR SECRET LOVE - CD 2
DYEAR=1900
DGENRE=
TTITLE0=The Best Of Luther Vandross... - CD1 - 01 - Searching
TTITLE1=The Best Of Luther Vandross... - CD1 - 02 - The Glow of Love
TTITLE2=The Best Of Luther Vandross... - CD1 - 03 - Never Too Much
TTITLE3=The Best Of Luther Vandross... - CD1 - 04 - If This World Were Mine (Du
TTITLE3=et with Cheryl Lynn)
TTITLE4=The Best Of Luther Vandross... - CD1 - 05 - A House Is Not A Home
TTITLE5=The Best Of Luther Vandross... - CD1 - 06 - Bad Boy-Having A Party
TTITLE6=The Best Of Luther Vandross... - CD1 - 07 - Since I Lost My Baby
TTITLE7=The Best Of Luther Vandross... - CD1 - 08 - Promise Me
TTITLE8=The Best Of Luther Vandross... - CD1 - 09 - 'Til My Baby Comes Home
TTITLE9=The Best Of Luther Vandross... - CD1 - 10 - If Only For One Night-Creep
TTITLE9=in'
TTITLE10=Your Secret Love - 05 - I Can Make It Better
TTITLE11=Your Secret Love - 06 - Too Proud To Beg
TTITLE12=Your Secret Love - 07 - I Can't Wait No Longer (Let's Do This)
EXTD=
EXTT0=
EXTT1=
EXTT2=
EXTT3=
EXTT4=
EXTT5=
EXTT6=
EXTT7=
EXTT8=
EXTT9=
EXTT10=
EXTT11=
EXTT12=
PLAYORDER=
